<?xml version="1.0" encoding="UTF-8"?>
<svg width="60" height="40" viewBox="0 0 78 48" fill="none" xmlns="http://www.w3.org/2000/svg">
  <rect width="78" height="48" rx="6" fill="#FF5F00"/>
  <path d="M29 24C29 16.82 34.82 11 42 11C45.32 11 48.27 12.46 50.3 14.7L46.24 18.76C44.9 17.42 43.05 16.5 41 16.5C37.14 16.5 34 19.64 34 24C34 28.36 37.14 31.5 41 31.5C43.05 31.5 44.9 30.58 46.24 29.24L50.3 33.3C48.27 35.54 45.32 37 42 37C34.82 37 29 31.18 29 24Z" fill="#EB001B"/>
  <path d="M55 24C55 31.18 49.18 37 42 37C38.68 37 35.73 35.54 33.7 33.3L37.76 29.24C39.1 30.58 40.95 31.5 43 31.5C46.86 31.5 50 28.36 50 24C50 19.64 46.86 16.5 43 16.5C40.95 16.5 39.1 17.42 37.76 18.76L33.7 14.7C35.73 12.46 38.68 11 42 11C49.18 11 55 16.82 55 24Z" fill="#F79E1B"/>
</svg>
