<?xml version="1.0" encoding="UTF-8"?>
<svg width="60" height="40" viewBox="0 0 60 36" fill="none" xmlns="http://www.w3.org/2000/svg">
  <rect width="60" height="36" rx="4" fill="#1F3A8E"/>
  <path d="M30 6C17.85 6 8 15.85 8 28C8 40.15 17.85 50 30 50C42.15 50 52 40.15 52 28C52 15.85 42.15 6 30 6ZM30 44C20.06 44 12 35.94 12 26C12 16.06 20.06 8 30 8C39.94 8 48 16.06 48 26C48 35.94 39.94 44 30 44Z" fill="white"/>
  <path d="M30 12C22.28 12 16 18.28 16 26C16 33.72 22.28 40 30 40C37.72 40 44 33.72 44 26C44 18.28 37.72 12 30 12ZM30 36C24.48 36 20 31.52 20 26C20 20.48 24.48 16 30 16C35.52 16 40 20.48 40 26C40 31.52 35.52 36 30 36Z" fill="white"/>
  <path d="M30 20C25.58 20 22 23.58 22 28C22 32.42 25.58 36 30 36C34.42 36 38 32.42 38 28C38 23.58 34.42 20 30 20ZM30 32C27.8 32 26 30.2 26 28C26 25.8 27.8 24 30 24C32.2 24 34 25.8 34 28C34 30.2 32.2 32 30 32Z" fill="#1F3A8E"/>
  <path d="M30 28C29.45 28 29 27.55 29 27C29 26.45 29.45 26 30 26C30.55 26 31 26.45 31 27C31 27.55 30.55 28 30 28Z" fill="#1F3A8E"/>
</svg>
